<?xml version="1.0" standalone="no"?>
<!DOCTYPE svg PUBLIC "-//W3C//DTD SVG 20010904//EN"
 "http://www.w3.org/TR/2001/REC-SVG-20010904/DTD/svg10.dtd">
<svg version="1.0" xmlns="http://www.w3.org/2000/svg"
 width="700.000000pt" height="700.000000pt" viewBox="0 0 700.000000 700.000000"
 preserveAspectRatio="xMidYMid meet">
<metadata>
Created by potrace 1.14, written by Peter Selinger 2001-2017
</metadata>
<g transform="translate(0.000000,700.000000) scale(0.100000,-0.100000)"
fill="#000000" stroke="none">
<path d="M3190 6461 c-20 -20 -87 -79 -150 -133 -149 -125 -329 -304 -505
-501 -29 -33 -174 -208 -205 -247 -19 -25 -38 -49 -42 -55 -106 -131 -302
-420 -415 -610 -6 -11 -20 -36 -31 -55 -11 -19 -39 -71 -64 -115 -249 -445
-445 -1005 -513 -1470 -4 -22 -8 -51 -10 -65 -2 -14 -7 -56 -11 -95 -3 -38 -8
-88 -10 -110 -6 -59 -5 -396 0 -425 3 -14 7 -50 10 -80 12 -130 81 -410 127
-517 11 -26 22 -55 24 -64 3 -17 99 -211 134 -274 91 -158 217 -322 356 -460
157 -158 259 -239 422 -339 318 -194 620 -293 1008 -332 52 -5 316 -4 380 1
44 4 109 13 225 31 19 3 78 17 130 30 60 15 107 22 128 18 29 -6 38 -2 62 25
16 17 35 31 43 31 7 0 56 18 108 41 528 229 951 647 1184 1174 75 168 125 334
159 530 29 162 40 420 24 555 -38 317 -188 645 -435 951 -115 142 -360 395
-522 539 -41 36 -79 70 -85 75 -68 60 -185 161 -291 250 -71 61 -135 114 -141
120 -6 5 -30 26 -54 45 -23 19 -55 46 -70 60 -15 14 -52 45 -81 70 -279 236
-562 545 -681 745 -76 127 -137 292 -153 415 -9 65 -8 190 0 243 9 48 -7 47
-55 -2z"/>
</g>
</svg>
