<?xml version="1.0" encoding="UTF-8"?>
<!-- Generator: Adobe Illustrator 23.0.6, SVG Export Plug-In . SVG Version: 6.00 Build 0)  -->
<svg version="1.1" id="Calque_1" xmlns="http://www.w3.org/2000/svg" xmlns:xlink="http://www.w3.org/1999/xlink" x="0px" y="0px" viewBox="0 0 91.2 62.6" style="enable-background:new 0 0 91.2 62.6;" xml:space="preserve">
<style type="text/css">
	.st0{fill:#FF7700;}
</style>
<g id="quotes" transform="translate(0 -80.25)">
	<path id="Tracé_3027" class="st0" d="M20,103c11,0,19.9,8.9,19.9,19.9S31,142.9,20,142.9S0.1,134,0.1,123c0,0,0,0,0,0L0,120.1   c0-22,17.8-39.9,39.9-39.9l0,0v11.4c-7.6,0-14.8,3-20.1,8.3c-1,1-2,2.1-2.8,3.3C17.9,103.1,19,103,20,103z M71.3,103   c11,0,19.9,8.9,19.9,19.9s-8.9,19.9-19.9,19.9S51.3,134,51.3,123l-0.1-2.8c0-22,17.8-39.9,39.9-39.9v11.4c-7.6,0-14.8,3-20.1,8.3   c-1,1-2,2.1-2.8,3.3C69.2,103.1,70.2,103,71.3,103z"/>
</g>
</svg>